<svg width="872" height="603" viewBox="0 0 872 603" fill="none" xmlns="http://www.w3.org/2000/svg">
<path fill-rule="evenodd" clip-rule="evenodd" d="M435.638 0C676.338 0 871.277 128.129 871.277 284.629V301.103C871.277 467.671 701.964 602.206 435.638 602.206C170.228 602.206 0 467.671 0 301.103V284.629C0 128.129 194.939 0 435.638 0Z" fill="#2D3277"/>
<path d="M856 284.5C856 431.992 668.494 552 437.999 552C207.505 552 20 431.992 20 284.5C20 137.008 207.505 17 437.999 17C668.494 17 856 137.008 856 284.5Z" fill="#FFE600"/>
<path d="M298.357 200.431C298.357 200.431 293.78 205.006 296.526 208.667C302.932 216.904 323.068 221.48 344.117 216.904C356.015 214.158 372.488 201.346 387.132 189.448C403.605 176.635 420.079 162.907 436.553 158.331C453.942 152.839 464.925 155.585 472.246 157.416C480.483 160.161 489.635 165.652 505.194 176.635C533.565 197.685 648.881 298.358 669.016 315.747C684.574 308.425 755.96 278.223 852.972 256.258C844.736 205.007 813.618 157.416 766.028 118.977C700.133 146.434 618.679 161.077 539.056 122.638C539.056 122.638 496.042 102.503 453.027 103.418C389.878 105.249 363.337 131.79 334.05 161.077L298.357 200.431Z" fill="white"/>
<path d="M664.44 326.728C663.525 325.813 528.99 208.666 498.788 185.786C481.399 172.973 471.331 169.312 461.263 167.482C455.772 166.567 448.451 167.483 442.959 169.313C429.231 172.974 410.013 185.786 393.539 198.599C376.15 212.327 360.591 225.141 345.948 227.887C326.728 232.463 303.849 226.971 293.781 219.649C289.205 216.904 286.46 213.243 284.629 209.582C280.968 200.43 288.29 193.108 289.205 192.193L325.814 151.924L338.627 139.111C326.729 140.941 315.746 143.687 304.763 146.433C291.035 150.094 278.223 153.754 265.41 153.754C259.919 153.754 230.632 149.178 225.141 147.348C191.278 138.196 161.991 129.044 118.061 108.91C65.8941 148.264 30.2014 196.77 20.1342 250.767C27.4558 252.597 40.2683 256.258 44.8443 257.173C163.821 283.714 200.43 311.17 207.752 316.661C215.073 308.424 225.14 303.848 237.038 303.848C249.851 303.848 261.748 310.255 269.07 320.322C275.476 314.831 285.545 310.255 297.442 310.255C302.934 310.255 308.424 311.17 314.83 313C328.558 317.576 334.966 326.728 338.627 334.965C343.203 333.135 348.693 331.304 355.1 331.304C361.506 331.304 367.913 333.135 375.235 335.88C397.2 345.032 400.861 366.998 399.03 383.472H403.606C430.147 383.472 451.196 404.521 451.196 431.062C451.196 439.299 449.366 446.621 445.705 453.027C453.027 456.688 470.416 465.84 486.89 464.009C499.703 462.179 504.278 458.518 506.109 455.772C507.024 453.942 508.854 452.112 507.024 450.281L473.162 412.758C473.162 412.758 467.67 407.266 469.501 405.436C471.331 403.605 474.992 406.352 477.738 408.182C495.127 422.825 515.261 443.875 515.261 443.875C515.261 443.875 517.091 446.621 524.413 448.451C530.819 449.366 542.717 448.451 550.954 442.044C552.785 440.214 555.53 438.384 556.445 436.553C564.682 425.571 555.53 414.588 555.53 414.588L516.176 370.659C516.176 370.659 510.686 365.167 512.516 363.337C514.346 361.506 518.006 364.252 520.752 366.083C533.565 376.15 550.955 394.454 567.428 410.928C571.089 413.674 585.732 422.825 604.952 410.012C616.849 401.775 619.595 392.623 618.68 385.302C617.765 376.15 610.443 368.828 610.443 368.828L557.36 314.831C557.36 314.831 551.87 310.255 553.7 307.509C555.531 305.679 559.191 308.425 561.936 310.255C579.325 324.899 625.086 366.998 625.086 366.998C626.001 366.998 641.56 378.896 661.694 366.083C669.016 361.507 673.592 355.1 673.592 346.863C674.507 334.966 664.44 326.728 664.44 326.728Z" fill="white"/>
<path d="M405.436 395.368C397.199 395.368 388.047 399.944 387.132 399.944C386.217 399.944 387.132 396.284 388.047 394.453C388.962 392.623 399.945 359.676 373.404 347.778C353.269 338.626 340.456 348.693 336.796 353.269C335.88 354.184 334.966 354.184 334.966 353.269C334.966 347.778 332.22 331.304 313.915 325.813C288.29 317.576 272.731 335.881 268.155 342.287C266.325 327.644 254.427 316.661 238.869 316.661C222.395 316.661 209.582 329.473 209.582 345.947C209.582 362.421 222.395 375.234 238.869 375.234C247.106 375.234 253.512 372.489 259.003 366.997V367.912C258.088 375.234 255.342 401.775 282.798 411.843C293.781 416.419 302.934 412.758 311.17 407.267C313.916 405.436 313.915 406.351 313.915 408.182C313 414.588 313.916 429.231 334.966 437.468C350.524 443.874 359.676 437.468 365.167 431.977C367.912 429.231 368.828 430.147 368.828 433.808C369.743 453.027 386.217 468.585 405.436 468.585C425.571 468.585 442.044 452.111 442.044 431.977C442.044 411.842 425.571 395.368 405.436 395.368Z" fill="white"/>
<path d="M669.981 312.572C628.763 276.837 533.505 193.456 506.943 174.214C492.288 163.219 482.213 156.805 473.054 154.973C469.39 154.056 463.894 152.223 456.566 152.223C450.155 152.223 442.828 153.14 435.501 155.889C419.014 161.386 402.527 174.215 386.04 187.043L385.124 187.959C370.469 199.87 354.898 211.782 342.991 214.531C337.495 215.447 332.915 216.363 327.419 216.363C314.596 216.363 302.689 212.698 298.11 207.2C297.194 206.284 298.109 204.451 299.941 202.619L336.579 163.219C364.973 134.815 391.535 108.242 453.819 106.41H456.566C495.036 106.41 533.506 123.819 538.085 125.651C574.723 143.06 611.36 152.223 648.914 152.223C688.299 152.223 728.601 142.145 770.734 122.903C766.154 119.238 760.659 114.656 756.079 110.991C718.526 127.484 683.719 134.814 648.914 134.814C614.108 134.814 579.303 126.568 545.413 110.075C543.581 109.159 501.448 89 456.566 89H452.904C400.695 89.9163 371.385 108.242 352.15 124.735C332.916 124.735 316.429 130.233 301.774 133.898C288.951 137.563 277.043 140.313 266.052 140.313H252.313C239.49 140.313 175.374 124.736 124.997 104.577C119.501 108.243 114.922 111.907 109.426 115.572C162.551 137.563 227.582 154.056 247.733 155.889C253.229 155.889 259.64 156.805 266.052 156.805C279.791 156.805 292.614 153.14 306.353 149.475C314.597 147.643 322.84 144.893 331.083 143.061L323.755 150.391L287.118 190.708C284.37 193.457 277.959 201.703 281.622 210.866C283.454 214.531 287.118 218.195 291.697 221.86C300.857 227.358 316.428 231.94 331.083 231.94C336.579 231.94 342.074 231.023 346.654 230.107C362.225 226.442 378.712 213.615 395.199 199.871C408.938 188.875 428.172 175.13 442.827 170.549C447.407 169.633 451.987 168.717 456.566 168.717H460.23C470.306 169.633 479.465 173.299 496.868 186.126C527.094 209.033 661.737 326.316 662.653 327.233C662.653 327.233 670.896 334.563 670.896 347.391C670.896 353.805 666.317 360.219 659.906 364.801C654.41 368.466 647.998 370.298 642.503 370.298C633.343 370.298 626.932 365.717 626.932 365.717C626.932 365.717 580.219 323.567 563.732 308.907C560.984 306.158 558.236 304.326 555.488 304.326C553.656 304.326 552.74 305.243 551.824 306.159C549.077 309.824 551.825 314.405 555.488 317.154L609.529 371.214C609.529 371.214 615.94 377.628 616.856 385.875C616.856 395.037 613.193 402.368 604.034 407.866C597.622 412.447 591.21 414.279 584.798 414.279C576.555 414.279 571.059 410.614 569.227 409.698L560.984 402.368C547.245 388.624 532.59 373.963 521.599 365.717C518.851 363.884 516.103 361.136 513.355 361.136C512.439 361.136 510.607 361.135 509.691 362.968C508.775 363.884 507.859 366.633 510.607 371.214C511.523 373.047 513.355 373.964 513.355 373.964L552.74 417.944C552.74 417.944 560.984 428.023 553.657 436.27L551.824 438.103L548.16 441.767C541.749 447.265 532.59 448.182 528.926 448.182H523.431C519.767 447.266 517.019 446.349 515.187 444.517C513.355 441.768 493.205 422.526 476.718 408.782C474.886 406.949 472.138 405.116 469.39 405.116C468.474 405.116 466.642 406.033 465.726 406.949C462.978 410.615 467.558 416.112 469.39 417.944L503.28 454.596C503.28 454.596 503.279 455.512 502.363 457.345C501.448 459.177 496.869 462.842 484.962 464.674H480.382C467.559 464.674 454.735 458.261 447.407 454.596C450.155 448.182 451.987 440.852 451.987 433.522C451.987 406.033 430.005 384.043 402.527 384.043H400.694C401.61 371.215 399.779 347.392 375.049 337.313C367.721 334.564 361.309 332.731 353.982 332.731C348.486 332.731 343.907 333.647 338.411 335.479C332.916 325.4 324.671 318.071 313.68 314.406C307.269 312.573 301.773 311.656 295.361 311.656C285.286 311.656 276.127 314.405 267.883 320.819C263.904 315.918 258.875 311.973 253.168 309.277C247.461 306.581 241.221 305.203 234.91 305.243C223.918 305.243 212.928 309.823 205.6 317.154C195.525 308.907 154.307 283.251 43.4782 257.596C37.9825 256.679 26.0758 253.015 18.7483 250.266C17.8323 255.764 16.9159 262.178 16 268.592C16 268.592 36.1513 273.173 40.731 274.089C153.392 298.829 190.945 325.4 197.356 329.982C195.525 335.48 194.608 340.978 194.608 346.475C194.608 370.299 213.843 388.624 236.741 388.624C239.489 388.624 242.237 388.624 244.985 387.708C248.649 405.117 259.64 417.945 277.043 424.359C282.538 426.192 287.118 427.107 291.697 427.107C294.445 427.107 298.11 427.107 301.774 426.191C304.522 434.438 311.848 444.516 328.335 450.93C333.831 453.679 339.327 454.596 344.822 454.596C349.402 454.596 353.982 453.68 357.646 451.847C364.973 470.173 383.292 483 403.443 483C417.182 483 430.005 477.503 439.165 467.424C447.408 472.005 463.895 480.252 481.298 480.252H487.709C505.112 478.419 512.439 471.089 516.103 466.508C517.018 465.591 517.019 464.675 517.935 463.758C521.599 464.675 526.179 465.592 531.674 465.592C540.834 465.592 549.993 462.842 559.152 455.512C568.312 449.098 574.723 439.935 574.723 431.689C577.471 432.605 581.134 432.605 583.882 432.605C593.042 432.605 603.117 429.856 612.276 423.442C629.679 412.447 632.427 396.871 632.427 387.708C635.175 388.624 638.839 388.624 641.587 388.624C650.746 388.624 659.906 385.875 668.149 380.377C679.141 373.047 685.552 362.968 686.468 351.057C687.384 342.81 684.635 334.563 680.972 327.233C710.282 314.405 776.229 290.581 855 272.256C855 265.842 854.085 260.344 852.253 253.93C757.911 274.088 687.384 304.326 669.981 312.572ZM405.274 465.592C386.955 465.592 372.301 450.93 371.385 432.605C371.385 430.772 371.385 427.107 367.721 427.107C365.889 427.107 364.973 428.024 363.141 428.94C359.477 432.606 353.981 436.27 346.654 436.27C342.99 436.27 339.327 435.354 335.663 433.522C316.428 425.275 315.513 412.447 316.428 406.949C316.428 405.117 316.429 404.2 315.513 403.284L314.596 402.368H313.68C312.764 402.368 311.848 402.368 310.016 404.2C304.521 407.865 299.026 409.698 293.53 409.698C290.782 409.698 287.118 408.782 284.371 407.866C258.724 397.786 260.556 373.963 262.388 366.633C262.388 364.8 262.388 363.884 261.472 362.968L259.64 361.136L257.808 362.968C252.313 367.549 245.901 370.298 239.489 370.298C224.834 370.298 212.927 358.386 212.927 343.726C212.927 329.066 224.834 317.154 239.489 317.154C252.313 317.154 264.22 327.233 266.052 340.061L266.968 347.391L270.632 340.977C270.632 340.06 281.623 323.568 301.774 324.484C305.437 324.484 309.101 325.4 313.68 326.316C329.251 330.898 331.999 345.559 331.999 351.057C331.999 354.722 334.747 354.721 334.747 354.721C335.663 354.721 337.494 353.805 337.494 352.889C340.242 350.14 346.655 344.642 356.73 344.642C361.31 344.642 365.889 345.559 371.385 348.307C396.115 359.303 385.124 390.456 385.124 391.372C383.292 396.87 382.376 398.702 385.124 400.535H386.955C387.871 400.535 389.703 400.535 391.535 399.619C395.199 398.703 399.779 396.871 404.358 396.871C422.677 396.871 438.248 412.447 438.248 430.773C439.164 450.931 423.593 465.592 405.274 465.592Z" fill="#2D3277"/>
</svg>
